<svg xmlns="http://www.w3.org/2000/svg" width="1200" height="630" viewBox="0 0 1200 630">
  <defs>
    <radialGradient id="g1" cx="18%" cy="20%" r="60%">
      <stop offset="0" stop-color="#FE2C55" stop-opacity=".55"/>
      <stop offset="1" stop-color="#FE2C55" stop-opacity="0"/>
    </radialGradient>
    <radialGradient id="g2" cx="86%" cy="18%" r="55%">
      <stop offset="0" stop-color="#25F4EE" stop-opacity=".45"/>
      <stop offset="1" stop-color="#25F4EE" stop-opacity="0"/>
    </radialGradient>
    <linearGradient id="t" x1="0" y1="0" x2="1" y2="0">
      <stop offset="0" stop-color="#FE2C55"/>
      <stop offset="1" stop-color="#25F4EE"/>
    </linearGradient>
  </defs>
  <rect width="1200" height="630" fill="#0E1013"/>
  <rect width="1200" height="630" fill="url(#g1)"/>
  <rect width="1200" height="630" fill="url(#g2)"/>
  <g transform="translate(90,150)" fill="none" stroke-width="11"
     stroke-linecap="round" stroke-linejoin="round">
    <path d="M40 0 V70 M8 45 l32 32 32-32" stroke="#25F4EE"
          transform="translate(-4 0)"/>
    <path d="M40 0 V70 M8 45 l32 32 32-32" stroke="#FE2C55"
          transform="translate(4 0)"/>
    <path d="M40 0 V70 M8 45 l32 32 32-32" stroke="#fff"/>
    <path d="M0 92 h80" stroke="#fff"/>
  </g>
  <text x="90" y="360" font-family="PingFang SC,Noto Sans SC,sans-serif"
        font-size="96" font-weight="800" fill="#fff">抖音无水印下载器</text>
  <text x="94" y="450" font-family="PingFang SC,Noto Sans SC,sans-serif"
        font-size="42" font-weight="700" fill="url(#t)">开源可信 · 数据最小化 · 永不接广告 · 稳定下载</text>
  <text x="94" y="524" font-family="PingFang SC,Noto Sans SC,sans-serif"
        font-size="34" fill="#8A93A0">粘贴分享链接，可靠拿走无水印原片</text>
</svg>
